<svg xmlns="http://www.w3.org/2000/svg" viewBox="0 0 1058.24 153.32"><defs><style>.cls-1,.cls-2{fill:none;}.cls-1,.cls-3{stroke:#ed1c24;stroke-width:3px;}.cls-1,.cls-2,.cls-3{stroke-miterlimit:10;}.cls-2{stroke:#231f20;stroke-width:2px;}.cls-3{fill:#ed1c24;opacity:0.7;}</style></defs><title>Asset 33</title><g id="Layer_2" data-name="Layer 2"><g id="Layer_1-2" data-name="Layer 1"><rect class="cls-1" x="1.5" y="98.92" width="25.74" height="10.37"/><rect class="cls-1" x="162.59" y="141.46" width="25.74" height="10.37"/><rect class="cls-1" x="317.83" y="60.92" width="26.89" height="10.83"/><rect class="cls-1" x="467.11" y="102.85" width="25.74" height="10.37"/><rect class="cls-1" x="572.76" y="47.44" width="25.74" height="10.37"/><rect class="cls-1" x="818.57" y="37.69" width="28.23" height="11.37"/><rect class="cls-1" x="962.27" y="9.49" width="28.23" height="11.37"/><rect class="cls-1" x="1028.52" y="1.5" width="28.23" height="11.37"/><line class="cls-2" x1="27.24" y1="104.1" x2="161.55" y2="146.64"/><line class="cls-2" x1="188.33" y1="146.64" x2="316.73" y2="66.34"/><line class="cls-2" x1="344.73" y1="66.34" x2="467.11" y2="108.03"/><line class="cls-2" x1="492.24" y1="108.03" x2="572.76" y2="52.63"/><line class="cls-2" x1="598.5" y1="52.63" x2="818.57" y2="43.38"/><line class="cls-2" x1="846.79" y1="43.38" x2="962.27" y2="15.18"/><line class="cls-2" x1="990.5" y1="15.18" x2="1027.44" y2="7.18"/><rect class="cls-3" x="1.5" y="98.92" width="25.74" height="10.37"/><rect class="cls-3" x="162.59" y="141.46" width="25.74" height="10.37"/><rect class="cls-3" x="317.83" y="60.92" width="26.89" height="10.83"/><rect class="cls-3" x="467.11" y="103.85" width="25.74" height="10.37"/><rect class="cls-3" x="572.76" y="47.99" width="25.74" height="10.37"/><rect class="cls-3" x="818.57" y="37.1" width="28.23" height="11.37"/><rect class="cls-3" x="962.27" y="9.49" width="28.23" height="11.37"/><rect class="cls-3" x="1028.52" y="1.5" width="28.23" height="11.37"/></g></g></svg>