<svg xmlns="http://www.w3.org/2000/svg" xmlns:xlink="http://www.w3.org/1999/xlink" viewBox="0 0 1173.34 205.76"><defs><style>.cls-1,.cls-2{fill:none;}.cls-1,.cls-3{stroke:#ed1c24;stroke-width:3px;}.cls-1,.cls-2,.cls-3{stroke-miterlimit:10;}.cls-2{stroke:#231f20;stroke-width:2px;}.cls-3{fill:#ed1c24;opacity:0.7;}</style></defs><title>Biffy</title><g id="Layer_2" data-name="Layer 2"><g id="Layer_1-2" data-name="Layer 1"><image width="800" height="1258" transform="scale(0.16)" xlink:href="2001.jpg"/><image width="784" height="1116" transform="translate(130.55) scale(0.19 0.18)" xlink:href="2002.jpg"/><image width="800" height="1083" transform="translate(277.08) scale(0.19 0.19)" xlink:href="2005.jpg"/><image width="800" height="1131" transform="translate(429.95) scale(0.18 0.18)" xlink:href="2007.jpg"/><image width="796" height="989" transform="translate(576.45) scale(0.21 0.21)" xlink:href="2008.jpg"/><image width="800" height="1200" transform="translate(743.28) scale(0.17 0.17)" xlink:href="2010-Leeds.jpg"/><image width="900" height="1273" transform="translate(881.83) scale(0.16 0.16)" xlink:href="2013.jpg"/><image width="900" height="1274" transform="translate(1027.99) scale(0.16)" xlink:href="2016-Leeds.jpg"/><rect class="cls-1" x="23.83" y="109.35" width="25.74" height="10.37"/><rect class="cls-1" x="184.92" y="151.89" width="25.74" height="10.37"/><rect class="cls-1" x="341.16" y="71.35" width="26.89" height="10.83"/><rect class="cls-1" x="490.44" y="113.28" width="25.74" height="10.37"/><rect class="cls-1" x="596.09" y="57.87" width="25.74" height="10.37"/><rect class="cls-1" x="841.9" y="49.12" width="28.23" height="11.37"/><rect class="cls-1" x="985.61" y="21.61" width="28.23" height="11.37"/><rect class="cls-1" x="1050.21" y="13.05" width="28.23" height="11.37"/><line class="cls-2" x1="49.57" y1="114.53" x2="183.89" y2="157.07"/><line class="cls-2" x1="210.66" y1="157.07" x2="339.06" y2="76.77"/><line class="cls-2" x1="367.06" y1="76.77" x2="489.44" y2="118.47"/><line class="cls-2" x1="514.57" y1="118.47" x2="595.09" y2="63.06"/><line class="cls-2" x1="620.83" y1="63.06" x2="840.9" y2="53.81"/><line class="cls-2" x1="869.13" y1="53.81" x2="984.61" y2="25.61"/><line class="cls-2" x1="1012.83" y1="25.61" x2="1049.78" y2="17.61"/><rect class="cls-3" x="23.83" y="109.35" width="25.74" height="10.37"/><rect class="cls-3" x="184.92" y="151.89" width="25.74" height="10.37"/><rect class="cls-3" x="340.16" y="71.35" width="26.89" height="10.83"/><rect class="cls-3" x="490.44" y="113.28" width="25.74" height="10.37"/><rect class="cls-3" x="596.09" y="57.87" width="25.74" height="10.37"/><rect class="cls-3" x="841.9" y="49.12" width="28.23" height="11.37"/><rect class="cls-3" x="985.61" y="21.61" width="28.23" height="11.37"/><rect class="cls-3" x="1050.21" y="13.05" width="28.23" height="11.37"/></g></g></svg>