<svg xmlns="http://www.w3.org/2000/svg" viewBox="0 0 1043.4 177.96"><defs><style>.cls-1,.cls-3{fill:#ed1c24;}.cls-1,.cls-2,.cls-3{stroke:#ed1c24;stroke-miterlimit:10;}.cls-1,.cls-2{stroke-width:2px;}.cls-2{fill:none;}.cls-3{stroke-width:3px;opacity:0.7;}</style></defs><title>Asset 40</title><g id="Layer_2" data-name="Layer 2"><g id="Layer_1-2" data-name="Layer 1"><line class="cls-1" x1="27.24" y1="120.4" x2="172.87" y2="171.27"/><line class="cls-2" x1="199.71" y1="171.27" x2="321.48" y2="77.94"/><line class="cls-2" x1="355.4" y1="78.72" x2="468.57" y2="127.96"/><line class="cls-2" x1="499.63" y1="126.48" x2="554.9" y2="63.01"/><line class="cls-2" x1="587.64" y1="59.92" x2="808.3" y2="49.4"/><line class="cls-2" x1="841.8" y1="50.42" x2="958.86" y2="19.46"/><line class="cls-2" x1="989.83" y1="16.1" x2="1010.37" y2="8.05"/><rect class="cls-3" x="1.5" y="115.22" width="25.74" height="10.37"/><rect class="cls-3" x="173.97" y="166.09" width="25.74" height="10.37"/><rect class="cls-3" x="322.79" y="71.67" width="31.15" height="12.55"/><rect class="cls-3" x="470.05" y="120.76" width="28.4" height="11.44"/><rect class="cls-3" x="555.89" y="55.62" width="30.28" height="12.2"/><rect class="cls-3" x="810.23" y="44.74" width="31.39" height="12.64"/><rect class="cls-3" x="958.86" y="11.16" width="31.97" height="16.6"/><rect class="cls-3" x="1010.18" y="1.5" width="31.72" height="12.78"/></g></g></svg>