<svg xmlns="http://www.w3.org/2000/svg" xmlns:xlink="http://www.w3.org/1999/xlink" viewBox="0 0 1174.22 207.82"><defs><style>.cls-1{fill:#ed1c24;opacity:0.7;}.cls-1,.cls-2{stroke:#ed1c24;stroke-width:3px;}.cls-1,.cls-2,.cls-3{stroke-miterlimit:10;}.cls-2,.cls-3{fill:none;}.cls-3{stroke:#231f20;stroke-width:2px;}</style></defs><title>Asset 34</title><g id="Layer_2" data-name="Layer 2"><g id="Layer_1-2" data-name="Layer 1"><image width="900" height="1274" transform="translate(1027.99 0.41) scale(0.16)" xlink:href="../2016-Leeds.jpg"/><image width="900" height="1273" transform="translate(881.83 0.27) scale(0.16)" xlink:href="../2013.jpg"/><image width="796" height="989" transform="translate(576.45 0.27) scale(0.21)" xlink:href="../2008.jpg"/><image width="800" height="1131" transform="translate(429.95 0.27) scale(0.18)" xlink:href="../2007.jpg"/><image width="800" height="1083" transform="translate(277.08 0.27) scale(0.19)" xlink:href="../2005.jpg"/><rect class="cls-1" x="283.17" y="21.63" width="143.73" height="71.63"/><image width="784" height="1116" transform="translate(131.46 0.27) scale(0.19)" xlink:href="../2002.jpg"/><image width="800" height="1258" transform="translate(0 0.27) scale(0.16)" xlink:href="../2001.jpg"/><rect class="cls-2" x="4.16" y="93.26" width="123.2" height="22.96"/><rect class="cls-2" x="133.39" y="148.04" width="140.35" height="19.22"/><rect class="cls-2" x="283.17" y="20" width="143.73" height="73.26"/><rect class="cls-2" x="429.95" y="103.74" width="146.5" height="39.93"/><rect class="cls-2" x="585.25" y="25.12" width="151.98" height="61.71"/><image width="800" height="1200" transform="translate(743.28) scale(0.17)" xlink:href="../2010-Leeds.jpg"/><rect class="cls-2" x="748.35" y="24.98" width="129.47" height="61.85"/><rect class="cls-2" x="889.9" y="23.29" width="130.53" height="35.41"/><rect class="cls-2" x="1051.74" y="13.61" width="120" height="36.75"/><line class="cls-3" x1="50.46" y1="116.22" x2="133.39" y2="157.65"/><line class="cls-3" x1="273.73" y1="157.65" x2="314.09" y2="94.12"/><line class="cls-3" x1="429.14" y1="56.63" x2="459.22" y2="101.55"/><line class="cls-3" x1="551.62" y1="103.74" x2="585.25" y2="55.98"/><line class="cls-3" x1="737.23" y1="55.98" x2="748.35" y2="55.91"/><line class="cls-3" x1="878.77" y1="48.78" x2="889.9" y2="44.25"/><line class="cls-3" x1="1020.43" y1="42" x2="1051.74" y2="33.81"/><rect class="cls-1" x="4.16" y="94.12" width="123.2" height="22.1"/><rect class="cls-1" x="133.39" y="148.04" width="140.35" height="19.22"/><rect class="cls-1" x="429.95" y="103.74" width="146.5" height="39.93"/><rect class="cls-1" x="585.25" y="25.12" width="151.98" height="61.71"/><rect class="cls-1" x="748.35" y="25.12" width="129.47" height="61.71"/><rect class="cls-1" x="889.9" y="23.29" width="130.53" height="35.41"/><rect class="cls-1" x="1051.74" y="13.61" width="120" height="36.75"/></g></g></svg>