<svg xmlns="http://www.w3.org/2000/svg" xmlns:xlink="http://www.w3.org/1999/xlink" viewBox="0 0 1174.22 207.82"><defs><style>.cls-1,.cls-2{fill:none;stroke-miterlimit:10;}.cls-1{stroke:#ed1c24;stroke-width:3px;}.cls-2{stroke:#231f20;stroke-width:2px;}</style></defs><title>Example</title><g id="Layer_2" data-name="Layer 2"><g id="Layer_1-2" data-name="Layer 1"><image width="900" height="1274" transform="translate(1027.99 0.41) scale(0.16)" xlink:href="2016-Leeds.jpg"/><image width="900" height="1273" transform="translate(881.83 0.27) scale(0.16)" xlink:href="2013.jpg"/><image width="796" height="989" transform="translate(576.45 0.27) scale(0.21)" xlink:href="2008.jpg"/><image width="800" height="1131" transform="translate(429.95 0.27) scale(0.18)" xlink:href="2007.jpg"/><image width="800" height="1083" transform="translate(277.08 0.27) scale(0.19)" xlink:href="2005.jpg"/><image width="784" height="1116" transform="translate(131.46 0.27) scale(0.19)" xlink:href="2002.jpg"/><image width="800" height="1258" transform="translate(0 0.27) scale(0.16)" xlink:href="2001.jpg"/><rect class="cls-1" x="24.72" y="111.03" width="25.74" height="10.37"/><rect class="cls-1" x="185.81" y="153.57" width="25.74" height="10.37"/><rect class="cls-1" x="341.05" y="73.03" width="26.89" height="10.83"/><rect class="cls-1" x="490.33" y="114.97" width="25.74" height="10.37"/><rect class="cls-1" x="595.98" y="59.56" width="25.74" height="10.37"/><image width="800" height="1200" transform="translate(743.28) scale(0.17)" xlink:href="2010-Leeds.jpg"/><rect class="cls-1" x="841.79" y="49.81" width="28.23" height="11.37"/><rect class="cls-1" x="985.49" y="21.61" width="28.23" height="11.37"/><rect class="cls-1" x="1051.74" y="13.61" width="28.23" height="11.37"/><line class="cls-2" x1="50.46" y1="116.22" x2="184.77" y2="158.76"/><line class="cls-2" x1="211.55" y1="158.76" x2="339.95" y2="78.45"/><line class="cls-2" x1="367.95" y1="78.45" x2="490.33" y2="120.15"/><line class="cls-2" x1="515.46" y1="120.15" x2="595.98" y2="64.74"/><line class="cls-2" x1="621.72" y1="64.74" x2="841.79" y2="55.49"/><line class="cls-2" x1="870.01" y1="55.49" x2="985.49" y2="27.29"/><line class="cls-2" x1="1013.72" y1="27.29" x2="1050.66" y2="19.3"/></g></g></svg>