<svg xmlns="http://www.w3.org/2000/svg" xmlns:xlink="http://www.w3.org/1999/xlink" viewBox="0 0 255.19 358.97"><defs><style>.cls-1{opacity:0.3;}.cls-2{fill:#ed1c24;stroke:#ed1c24;opacity:0.6;}.cls-2,.cls-3{stroke-miterlimit:10;stroke-width:3px;}.cls-3{fill:none;stroke:#231f20;opacity:0.9;}</style></defs><title>Poster Diagram</title><g id="Layer_2" data-name="Layer 2"><g id="Layer_1-2" data-name="Layer 1"><image class="cls-1" width="900" height="1273" transform="translate(12.44 16.6) scale(0.26)" xlink:href="2017.jpg"/><rect class="cls-2" x="175.77" y="1.5" width="47.86" height="355.97"/><rect class="cls-2" x="118.7" y="1.5" width="47.86" height="355.97"/><rect class="cls-2" x="60.47" y="1.5" width="47.86" height="355.97"/><rect class="cls-3" x="115.97" y="-21.12" width="23.26" height="252.19" transform="translate(232.57 -22.62) rotate(90)"/><rect class="cls-3" x="113.86" y="-68.48" width="27.47" height="252.19" transform="translate(185.21 -69.98) rotate(90)"/><rect class="cls-3" x="115.87" y="9.83" width="23.45" height="252.19" transform="translate(263.52 8.33) rotate(90)"/><rect class="cls-3" x="118.73" y="37.82" width="17.72" height="252.19" transform="translate(291.52 36.32) rotate(90)"/><rect class="cls-3" x="117.27" y="67.22" width="20.65" height="252.19" transform="translate(320.91 65.72) rotate(90)"/><rect class="cls-3" x="118.73" y="93.54" width="17.72" height="252.19" transform="translate(347.23 92.04) rotate(90)"/><rect class="cls-3" x="118.73" y="119.4" width="17.72" height="252.19" transform="translate(373.09 117.9) rotate(90)"/></g></g></svg>