<svg xmlns="http://www.w3.org/2000/svg" xmlns:xlink="http://www.w3.org/1999/xlink" viewBox="0 0 253.19 356.97"><defs><style>.cls-1,.cls-2{fill:none;stroke-miterlimit:10;}.cls-1{stroke:#fff;}.cls-2{stroke:#231f20;}</style></defs><title>Poster Diagram</title><g id="Layer_2" data-name="Layer 2"><g id="Layer_1-2" data-name="Layer 1"><image width="900" height="1273" transform="translate(11.44 14.59) scale(0.26)" xlink:href="2017.jpg"/><rect class="cls-1" x="59.46" y="0.5" width="47.93" height="355.97"/><rect class="cls-1" x="117.1" y="0.5" width="47.93" height="355.97"/><rect class="cls-1" x="175.2" y="0.5" width="47.93" height="355.97"/><rect class="cls-2" x="114.61" y="117.6" width="23.97" height="252.19" transform="translate(370.29 117.1) rotate(90)"/><rect class="cls-2" x="113.11" y="89.84" width="26.98" height="252.19" transform="translate(342.53 89.34) rotate(90)"/><rect class="cls-2" x="115.27" y="62.71" width="22.66" height="252.19" transform="translate(315.4 62.21) rotate(90)"/><rect class="cls-2" x="115.84" y="38.32" width="21.51" height="252.19" transform="translate(291.01 37.82) rotate(90)"/><rect class="cls-2" x="114.61" y="12.46" width="23.96" height="252.19" transform="translate(265.15 11.96) rotate(90)"/><rect class="cls-2" x="111.39" y="-17.85" width="30.41" height="252.19" transform="translate(234.84 -18.35) rotate(90)"/><rect class="cls-2" x="102.63" y="-60.14" width="47.93" height="252.19" transform="translate(192.55 -60.64) rotate(90)"/></g></g></svg>