<svg xmlns="http://www.w3.org/2000/svg" xmlns:xlink="http://www.w3.org/1999/xlink" viewBox="0 0 254.19 357.97"><defs><style>.cls-1,.cls-2{fill:none;stroke-miterlimit:10;stroke-width:2px;}.cls-1{stroke:#ed1c24;}.cls-2{stroke:#231f20;}</style></defs><title>Poster Diagram</title><g id="Layer_2" data-name="Layer 2"><g id="Layer_1-2" data-name="Layer 1"><image width="900" height="1273" transform="translate(11.94 15.09) scale(0.26)" xlink:href="2017.jpg"/><rect class="cls-1" x="59.96" y="1" width="47.93" height="355.97"/><rect class="cls-1" x="117.6" y="1" width="47.93" height="355.97"/><rect class="cls-1" x="175.7" y="1" width="47.93" height="355.97"/><rect class="cls-2" x="115.11" y="118.1" width="23.97" height="252.19" transform="translate(371.29 117.1) rotate(90)"/><rect class="cls-2" x="113.61" y="90.34" width="26.98" height="252.19" transform="translate(343.53 89.34) rotate(90)"/><rect class="cls-2" x="115.77" y="63.21" width="22.66" height="252.19" transform="translate(316.4 62.21) rotate(90)"/><rect class="cls-2" x="116.34" y="38.82" width="21.51" height="252.19" transform="translate(292.01 37.82) rotate(90)"/><rect class="cls-2" x="115.11" y="12.96" width="23.96" height="252.19" transform="translate(266.15 11.96) rotate(90)"/><rect class="cls-2" x="111.89" y="-17.35" width="30.41" height="252.19" transform="translate(235.84 -18.35) rotate(90)"/><rect class="cls-2" x="103.13" y="-59.64" width="47.93" height="252.19" transform="translate(193.55 -60.64) rotate(90)"/></g></g></svg>